<?xml version="1.0" encoding="utf-8"?>
<!-- Generator: Adobe Illustrator 25.4.1, SVG Export Plug-In . SVG Version: 6.00 Build 0)  -->
<svg version="1.1" id="Layer_1" xmlns="http://www.w3.org/2000/svg" xmlns:xlink="http://www.w3.org/1999/xlink" x="0px" y="0px"
	 viewBox="0 0 348 104" style="enable-background:new 0 0 348 104;" xml:space="preserve">
<style type="text/css">
	.st0{fill:none;stroke:#774234;stroke-width:2;stroke-miterlimit:10;}
	.st1{fill:#454545;}
	.st2{fill:none;}
	.st3{fill:#774234;}
	.st4{fill:none;stroke:#454546;stroke-width:0.5;stroke-miterlimit:10;}
</style>
<image style="overflow:visible;" width="164" height="143" xlink:href="3CA75513.jpg"  transform="matrix(1 0 0 1 -84.3944 -211.5)">
</image>
<text transform="matrix(0.8497 0 0 1 167.8694 -118.8082)" class="st1" style="font-family:'Allura-Regular'; font-size:28.8733px;">DPS</text>
<text transform="matrix(1 0 0 1 117.8056 -77.1303)" style="font-family:'FONTSPRINGDEMO-AequitasBlackRegular'; font-size:60.067px;">PALIADIO</text>
<text transform="matrix(1.0758 0 0 1 118.0459 -59.1066)" style="font-family:'Poppins-Regular'; font-size:8.616px;">Sultanpur Road, Lucknow</text>
<g>
	<g>
		<g>
			<rect x="20.5" y="11.7" class="st0" width="72.7" height="80.6"/>
			<path class="st0" d="M20.8,48.1C20.9,28.3,37,12.4,56.8,12.4s35.9,16,36.1,35.7"/>
			<path class="st0" d="M39,48.1c0.1-9.7,8.1-17.6,17.8-17.6c9.8,0,17.7,7.8,17.8,17.6"/>
			<polyline class="st0" points="20.4,48.1 20.8,48.1 34.3,48.1 			"/>
			<polyline class="st0" points="79.4,48.1 92.9,48.1 93.2,48.1 			"/>
			<g>
				<path class="st0" d="M44.8,92.3H20.4V48.1h24.4c0.7,1.4,1.5,3.4,1.7,6c0.3,3.9-0.9,7-1.7,8.6C44.8,72.6,44.8,82.4,44.8,92.3z"/>
				<path class="st0" d="M31.4,64.6c4.4,1,9.3,0.5,13.4-1.8"/>
			</g>
			<g>
				<path class="st0" d="M68.8,92.3h24.4V48.1H68.8c-0.7,1.4-1.5,3.4-1.7,6c-0.3,3.9,0.9,7,1.7,8.6C68.8,72.6,68.8,82.4,68.8,92.3z"
					/>
				<path class="st0" d="M68.8,62.7c4.1,2.3,9,2.9,13.4,1.8"/>
			</g>
			<g>
				<g>
					<polyline class="st0" points="39.6,43.8 22.2,38.2 21.7,38 					"/>
				</g>
				<g>
					<polyline class="st0" points="41.9,38.6 27.2,27.9 27,27.7 					"/>
				</g>
				<g>
					<polyline class="st0" points="45.8,34.3 35.2,19.6 35.1,19.6 					"/>
				</g>
				<g>
					<line class="st0" x1="51" y1="31.5" x2="45.4" y2="14.3"/>
				</g>
				<g>
					<line class="st0" x1="56.8" y1="30.5" x2="56.8" y2="12.5"/>
				</g>
				<g>
					<line class="st0" x1="68.2" y1="14.3" x2="62.1" y2="31.3"/>
				</g>
				<g>
					<polyline class="st0" points="67,33.7 78.5,19.6 78.5,19.6 					"/>
				</g>
				<g>
					<polyline class="st0" points="71.4,38 86.5,27.9 86.7,27.7 					"/>
				</g>
				<g>
					<polyline class="st0" points="74,43.4 91.4,38.2 91.9,38 					"/>
				</g>
			</g>
		</g>
	</g>
	<g>
		<g>
			<path class="st1" d="M199.7,33.8c-0.4,0-0.7-0.1-0.9-0.4c-0.2-0.3-0.4-0.6-0.5-0.9c-0.1-0.4-0.2-0.7-0.2-1c0-0.3-0.1-0.6-0.1-0.7
				c0-0.7,0-1.4,0.1-1.9c0-0.5,0.1-1.1,0.2-1.7V27c0-0.1,0-0.3-0.1-0.4c0-0.1-0.1-0.3-0.1-0.4c0,0,0-0.1,0-0.1c0,0,0,0,0-0.1
				c0-0.2,0.1-0.3,0.2-0.5c0.1-0.1,0.3-0.2,0.5-0.3c0.2-0.1,0.4-0.1,0.5-0.1c0.1,0,0.2,0,0.2,0.1c0,0,0.1,0.1,0.1,0.1
				c0,0.2,0,0.3-0.1,0.6c-0.1,0.3-0.2,0.5-0.2,0.5c0,0.1,0,0.2,0,0.6c0,0.2,0.1,0.4,0.3,0.7c0.2,0.3,0.4,0.6,0.7,0.9
				c0.2,0.3,0.5,0.5,0.7,0.7c0.2,0.2,0.3,0.3,0.4,0.3c0.1-0.4,0.3-0.9,0.5-1.5c0.2-0.6,0.5-1.3,0.8-2.1c0.3-0.7,0.6-1.5,0.9-2.1
				c0.3-0.7,0.5-1.3,0.7-1.7c0.1-0.2,0.2-0.5,0.2-0.6c0-0.2,0.1-0.3,0.1-0.4c0-0.1,0-0.2,0-0.2c0-0.1,0-0.1-0.1-0.1
				c0-0.3,0.2-0.7,0.6-1.3c0.3-0.6,0.7-1.2,1.2-1.8c0.5-0.6,1-1.1,1.5-1.6c0.5-0.4,0.9-0.6,1.3-0.6c0.1,0,0.3,0,0.5,0.1
				c0.2,0.1,0.5,0.2,0.7,0.4c0.2,0.2,0.4,0.4,0.4,0.7v0.1c0,0,0,0.1,0,0.1c0,0-0.1,0-0.1-0.1c-0.1,0-0.1-0.1-0.2-0.1
				c-0.4,0-0.9,0.3-1.4,0.8c-0.5,0.5-1,1.2-1.6,2s-1.1,1.8-1.6,2.8c-0.5,1-1,2-1.5,3c-0.5,1-0.9,1.9-1.2,2.8c-0.4,0.8-0.6,1.5-0.8,2
				c0.6,0.5,1.3,0.9,1.9,1.2s1.4,0.4,2.1,0.4c1.1,0,2.3-0.3,3.4-0.8c1.1-0.5,2.2-1.2,3.2-2c1-0.8,1.8-1.7,2.5-2.7
				c0.8-1.1,1.4-2.3,1.8-3.5c0.4-1.2,0.6-2.3,0.6-3.4c0-1.3-0.3-2.4-0.8-3.4c-0.5-1-1.3-1.8-2.4-2.4c-1.1-0.6-2.5-0.9-4.2-0.9
				c-1.2,0-2.5,0.2-3.8,0.5c-1.3,0.3-2.5,0.7-3.7,1.3s-2.3,1.2-3.2,1.9c-1,0.7-1.7,1.5-2.3,2.4c-0.6,0.9-0.8,1.7-0.8,2.7
				c0,0.6,0.2,1,0.5,1.3s0.6,0.5,1,0.6c0.4,0.1,0.7,0.3,0.9,0.4c0.2,0.1,0.2,0.1,0.2,0.2c0,0.1-0.1,0.2-0.3,0.2
				c-0.2,0-0.5-0.1-0.9-0.2c-0.4-0.1-0.8-0.3-1.1-0.6c-0.4-0.3-0.7-0.6-0.9-1c-0.2-0.4-0.3-0.9-0.3-1.4c0,0,0-0.1,0-0.2
				c0-0.1,0-0.2,0-0.3c0-1.1,0.3-2.1,0.8-2.9c0.5-0.9,1.3-1.6,2.2-2.3c0.9-0.7,2-1.2,3.1-1.7c1.2-0.4,2.4-0.8,3.7-1
				c1.3-0.2,2.6-0.3,3.8-0.3c1.1,0,2.3,0.1,3.4,0.3c1.2,0.2,2.3,0.6,3.2,1.2c1,0.6,1.8,1.4,2.4,2.4c0.6,1,0.9,2.4,0.9,4
				c0,1.8-0.3,3.5-1,5c-0.7,1.5-1.6,2.9-2.7,4c-1.1,1.1-2.4,2-3.8,2.6c-1.4,0.6-2.8,0.9-4.3,0.9c-1,0-1.9-0.1-2.8-0.4
				c-0.9-0.3-1.7-0.7-2.4-1.3c0,0.1-0.1,0.3-0.3,0.6c-0.1,0.3-0.3,0.7-0.5,1c-0.2,0.4-0.4,0.7-0.6,1
				C200.1,33.7,199.9,33.8,199.7,33.8z M199.6,32.8c0.2,0,0.3-0.2,0.5-0.6c0.2-0.4,0.3-0.8,0.5-1.2c0.1-0.4,0.2-0.7,0.3-0.8
				c-0.2-0.2-0.5-0.5-0.8-1c-0.4-0.4-0.7-0.8-0.9-1.1c0,0.2,0,0.7,0,1.5c0,0.8,0.1,1.6,0.2,2.4C199.3,32.6,199.4,32.8,199.6,32.8z"
				/>
			<path class="st1" d="M228.8,32.6c0,0-0.1,0-0.3-0.1c-0.2,0-0.4-0.1-0.5-0.2c-0.2-0.1-0.3-0.1-0.3-0.2c0-0.4,0.1-1,0.3-1.8
				c0.2-0.8,0.5-1.7,0.9-2.6c0.4-1,0.8-1.9,1.2-2.9c-0.1,0-0.2,0-0.2,0c-0.1,0-0.2,0-0.3,0c-0.2,0-0.3-0.2-0.3-0.4
				c0-0.1,0.1-0.2,0.3-0.2c0.2,0,0.3,0,0.4,0c0.1,0,0.2,0,0.4,0c0.4-0.9,0.7-1.6,1.1-2.3c0.3-0.7,0.6-1.2,0.7-1.6
				c0.1-0.2,0.2-0.5,0.2-0.6c0-0.2,0.1-0.3,0.1-0.4c0-0.1,0-0.2-0.1-0.3c0-0.3,0.2-0.6,0.4-1.1c0.2-0.4,0.5-0.9,0.9-1.3
				c0.4-0.4,0.8-0.8,1.2-1.1c0.4-0.3,0.8-0.5,1.2-0.5c0.1,0,0.3,0,0.5,0.1c0.2,0.1,0.5,0.2,0.7,0.4c0.2,0.2,0.4,0.4,0.4,0.7
				c0,0,0,0.1,0,0.2c0,0.1,0,0.1-0.1,0.1c0,0-0.1,0-0.2-0.1c-0.1,0-0.1-0.1-0.2-0.1c-0.4,0-0.9,0.2-1.4,0.7c-0.5,0.5-1,1.1-1.5,1.8
				c-0.5,0.8-1,1.6-1.5,2.5c-0.5,0.9-1,1.9-1.4,2.8c1,0,2-0.2,3-0.4c1.1-0.2,2.1-0.6,3.2-1c1-0.4,2-0.9,2.9-1.5
				c0.9-0.6,1.6-1.2,2.3-2c0.7-0.8,1-1.7,1-2.6c0-0.7-0.2-1.3-0.6-1.8c-0.4-0.6-1.1-1-2-1.3c-0.5-0.2-1.1-0.3-1.8-0.4
				c-0.7-0.1-1.4-0.1-2.2-0.1c-1.2,0-2.5,0.1-3.8,0.4c-1.3,0.2-2.5,0.6-3.6,1.1c-1.1,0.5-2.1,1.1-2.8,1.9c-0.8,0.8-1.2,1.7-1.4,2.7
				c-0.1,0.5,0,1,0.3,1.3c0.2,0.3,0.5,0.6,0.8,0.7c0.3,0.2,0.6,0.3,0.8,0.5c0.1,0.1,0.2,0.2,0.2,0.3c0,0.2-0.1,0.2-0.4,0.2
				c-0.3-0.1-0.6-0.2-1-0.5c-0.4-0.2-0.7-0.6-1-1c-0.3-0.4-0.4-0.9-0.4-1.5c0-0.1,0-0.2,0-0.3c0-0.1,0-0.2,0-0.3c0,0,0-0.1,0-0.2
				c0-0.1,0-0.2,0-0.3c0.1-0.7,0.4-1.4,0.9-2c0.5-0.6,1-1.2,1.6-1.6c0.6-0.5,1.2-0.9,1.7-1.2c0.9-0.5,2-0.9,3.2-1.2
				c1.3-0.3,2.6-0.5,3.9-0.5c0.8,0,1.7,0.1,2.5,0.2c0.8,0.1,1.6,0.3,2.4,0.6c1.1,0.4,1.9,1.1,2.5,2c0.6,0.9,0.9,1.8,0.8,2.8
				c-0.1,0.9-0.3,1.7-0.8,2.5c-0.5,0.7-1.1,1.4-1.9,1.9c-0.8,0.6-1.6,1-2.5,1.4c-0.9,0.4-1.8,0.7-2.7,1c-0.9,0.2-1.8,0.4-2.8,0.5
				c-1,0.1-1.9,0.2-2.6,0.2c-0.5,1-0.9,1.9-1.2,2.7c-0.4,0.9-0.6,1.5-0.8,2.1c-0.2,0.5-0.2,0.8-0.2,1c0,0.3,0.1,0.5,0.3,0.5
				c0.3,0,0.6-0.2,0.9-0.6c0.2-0.3,0.4-0.6,0.6-0.8c0.2-0.3,0.3-0.4,0.5-0.3c0,0,0,0.1,0,0.1c0,0.1-0.1,0.3-0.2,0.5
				c-0.1,0.2-0.2,0.3-0.2,0.3c-0.1,0.2-0.3,0.5-0.5,0.9c-0.2,0.4-0.4,0.7-0.7,1C229.3,32.5,229.1,32.6,228.8,32.6z"/>
			<path class="st1" d="M250.3,32.9c-1.3,0-2.4-0.3-3.1-0.8c-0.8-0.5-1.1-1.3-1.1-2.2c0-1,0.2-1.9,0.7-2.7c0.5-0.8,1.1-1.6,1.9-2.2
				c0.8-0.6,1.6-1.1,2.5-1.4c0.9-0.3,1.7-0.5,2.4-0.5c0.4,0,0.6,0.1,0.6,0.2c0,0.2-0.2,0.3-0.6,0.3c-0.7,0-1.5,0.2-2.3,0.6
				c-0.8,0.4-1.6,1-2.2,1.7c-0.5,0.5-0.9,1.1-1.2,1.6c-0.3,0.6-0.4,1.1-0.4,1.5c0,0.7,0.3,1.3,0.8,1.7c0.6,0.5,1.4,0.7,2.5,0.7
				c0.6,0,1.3-0.1,2-0.2c0.7-0.1,1.3-0.3,1.8-0.4c0.5-0.2,1-0.3,1.2-0.4c0.7-0.3,1.4-0.6,2.1-1c0.7-0.4,1.4-0.8,1.9-1.3
				c0.6-0.5,1-1,1.3-1.5c0.2-0.3,0.3-0.5,0.3-0.8c0.1-0.2,0.1-0.5,0.1-0.7c0-0.6-0.2-1.2-0.7-1.6c-0.5-0.4-1.1-0.8-1.8-1.2
				c-0.7-0.4-1.5-0.7-2.4-1c-0.8-0.3-1.6-0.7-2.4-1c-0.7-0.4-1.4-0.8-1.8-1.2s-0.7-1-0.7-1.7c0-0.7,0.2-1.4,0.7-2
				c0.5-0.6,1.1-1.1,1.8-1.6c0.7-0.5,1.5-0.8,2.4-1.1c0.8-0.3,1.6-0.5,2.4-0.7c0.8-0.2,1.4-0.2,1.9-0.2c2.1,0,3.1,0.6,3.1,1.9
				c0,0.5-0.2,1.1-0.5,1.7c-0.2,0.3-0.4,0.7-0.7,1c-0.3,0.3-0.5,0.5-0.7,0.5c-0.1,0-0.2-0.1-0.2-0.2c0-0.1,0.1-0.2,0.3-0.4
				c0.2-0.2,0.4-0.5,0.6-0.8c0.2-0.3,0.3-0.6,0.3-0.9c0-0.5-0.2-0.8-0.7-1.1c-0.4-0.2-1-0.4-1.8-0.4c-0.3,0-0.8,0.1-1.5,0.2
				c-0.6,0.1-1.4,0.3-2.1,0.6c-0.8,0.3-1.5,0.6-2.2,1.1c-1.3,0.9-2,1.6-2,2.2c0,0.4,0.4,0.9,1.1,1.3c0.6,0.3,1.2,0.6,1.9,0.9
				c0.7,0.3,1.5,0.7,2.2,1c0.7,0.4,1.4,0.8,2.1,1.2c0.6,0.4,1.2,0.9,1.5,1.5c0.4,0.6,0.6,1.2,0.6,1.9c0,0.9-0.4,1.9-1.3,2.9
				c-0.7,0.8-1.5,1.5-2.4,2.1c-0.9,0.7-1.9,1.2-2.9,1.7c-1,0.5-2,0.8-3,1.1C252,32.7,251.1,32.9,250.3,32.9z"/>
		</g>
		<g>
			<path class="st2" d="M239.1,49.4l-2.9-6.4c-2.2,5-3.2,7.7-3.2,7.7l-2.5,6c1.7-2.2,1.8,1.1,4.8,0.1c2-0.6,4.3-0.9,6.5-0.8
				c0-0.1-0.1-0.2-0.1-0.4L239.1,49.4z"/>
			<path class="st2" d="M264.5,40.8h-0.8c-0.3,0-1,0-1.4,0.4c-0.4,0.4-0.4,1.5-0.4,13.2v0.8c0,11.6,0,12.4,0.4,12.9
				c0.4,0.6,1.1,0.6,1.9,0.6h0.3c8.1,0,12.2-4.3,12.2-13.9C276.7,45.1,272.6,40.8,264.5,40.8z"/>
			<path class="st2" d="M169.6,49.4l-2.9-6.4c-2.2,5-5.4,12.6-5.4,12.6l-2.5,6c1.7-2.2,4-3.9,7-4.8c2-0.6,4.3-0.9,6.5-0.8
				c0-0.1-0.1-0.2-0.1-0.4L169.6,49.4z"/>
			<path class="st2" d="M151.5,49.5c0-5.2-2.9-8.6-9.9-8.7c-0.4,0-1.1,0-1.4,0.4c-0.4,0.4-0.4,2.6-0.4,9.2v7.6
				c0.3,0.2,0.6,0.3,1.5,0.3C148.5,58.2,151.5,54.8,151.5,49.5z"/>
			<path class="st2" d="M310.8,40.8c-5.5,0-10.6,4.3-10.6,13.9c0,9.7,5,13.9,10.6,13.9c5.5,0,10.6-4.3,10.6-13.9
				C321.4,45.1,316.3,40.8,310.8,40.8z"/>
			<path class="st3" d="M139.9,58.4c0,0,0.1,0.1,1.5,0.1c10.4,0,16.3-3.6,16.3-9.1c0-5.5-6.1-9-16.5-9h-9.5c0.6,0.1,1.2,0.4,1.6,0.9
				c0.6,0.8,1.1,1.3,1.1,13v0.8c0,11.6-0.5,12.2-1.1,13c-0.5,0.6-1.1,0.8-1.8,0.9h11.1c-0.7-0.1-1.3-0.4-1.8-0.9
				C140.4,67.3,140,66.8,139.9,58.4z M139.9,50.3c0-6.6,0-8.8,0.4-9.2c0.3-0.4,1-0.4,1.4-0.4c7,0.1,9.9,3.5,9.9,8.7
				c0,5.3-3.1,8.7-10.2,8.7c-1,0-1.2-0.1-1.5-0.3V50.3z"/>
			<path class="st3" d="M205.6,67.3c-1.7,1.2-4.6,1.3-10.4,1.3h-0.4c-0.8,0-1.5-0.1-1.9-0.6c-0.4-0.5-0.4-1.3-0.4-12.9v-0.8
				c0-11.6,0.5-12.2,1.1-13c0.5-0.6,1-0.8,1.5-0.9h-10.8c0.6,0.1,1.2,0.4,1.6,0.9c0.6,0.8,1.1,1.3,1.1,13v0.8
				c0,11.6-0.5,12.2-1.1,13c-0.3,0.3-0.7,0.6-1,0.7c-0.4-0.1-0.7-0.4-1-0.7c-0.6-0.8-1.8-2.6-6.4-13.2l-2.6-6.2
				c-1.5-3.4-2.6-6.2-3.3-8.1h-4.3c-2.2,5.3-6.1,14.4-6.1,14.4c-4.6,10.6-5.5,12.3-6.4,13.2c-0.7,0.7-2.5,0.8-3.4,0.9h9.2
				c-0.8-0.1-2.9-0.4-3.3-0.9c-1.4-2.9,3.5-11.1,3.5-11.1l11.7-0.5c0,0,4.3,10.9,3.7,11.6c-0.6,0.6-1.1,0.8-1.8,0.9h9.7h1.5h9.5
				c11.6,0,12.7,0.2,12.7,0.2l1.4-11.3H209C209,57.9,207.3,65.9,205.6,67.3z M161,56.5l0.4-0.9c0,0,3.2-7.6,5.4-12.6l2.9,6.4
				l2.6,6.2c0.1,0.1,0.1,0.4,0.1,0.4L161,56.5z"/>
			<path class="st3" d="M220.4,68c-0.6-0.8-1.1-1.3-1.1-13v-0.8c0-11.6,0.5-12.2,1.1-13c0.4-0.6,1-0.8,1.5-0.9h-10.8
				c0.6,0.1,1.1,0.4,1.6,0.9c0.6,0.8,1.1,1.3,1.1,13v0.8c0,11.6-0.5,12.2-1.1,13c-0.6,0.6-1.1,0.8-1.8,0.9h11.1
				C221.5,68.9,220.9,68.6,220.4,68z"/>
			<path class="st3" d="M264.5,40.4h-10.7c0.6,0.1,1.1,0.4,1.6,0.9c0.6,0.8,1.1,1.3,1.1,13v0.8c0,11.6-0.5,12.2-1.1,13
				c-0.3,0.3-0.7,0.6-1,0.7c-0.4-0.1-0.7-0.4-1-0.7c-0.6-0.8-1.8-2.6-6.4-13.2l-2.6-6.2c-1.5-3.4-2.6-6.2-3.3-8.1h-4.3
				c-2.2,5.3-3.9,9.4-3.9,9.4c-4.6,10.6-5.1,13.2-6,14.1c-0.7,0.7-0.3,0.9-0.3,0.9h1.2c-0.4,0,2.9-8.4,2.9-8.4l11.4-0.1
				c0,0,0.6,1.5,0.9,2.1c0.4-0.8,0.8-1.6,1.1-2.4c0.3,0,2.2-0.2,2.8,0.7c0.4,0.8-0.2,1.9-1,2.9c-0.5,0.8-1,1.4-1.5,2.1
				c2,4.9,1.9,5.6,1.4,6.1c-0.6,0.6-1.1,0.8-1.8,0.9h9.7h1.5h9.4c12.4,0,18.3-5.9,18.3-14.3S276.9,40.4,264.5,40.4z M230.8,56.1
				l2.3-5.4c0,0,1-2.7,3.2-7.7l2.9,6.4l2.6,6.2c0.1,0.1,0.1,0.4,0.1,0.4L230.8,56.1z M264.5,68.6h-0.3c-0.8,0-1.5-0.1-1.9-0.6
				c-0.4-0.5-0.4-1.3-0.4-12.9v-0.8c0-11.6,0-12.7,0.4-13.2c0.4-0.4,1.1-0.4,1.4-0.4h0.8c8.1,0,12.2,4.3,12.2,13.9
				C276.7,64.3,272.6,68.6,264.5,68.6z"/>
			<path class="st3" d="M292.3,68c-0.6-0.8-1.1-1.3-1.1-13v-0.8c0-11.6,0.5-12.2,1.1-13c0.4-0.6,1-0.8,1.5-0.9H283
				c0.6,0.1,1.1,0.4,1.6,0.9c0.6,0.8,1.1,1.3,1.1,13v0.8c0,11.6-0.5,12.2-1.1,13c-0.6,0.6-1.1,0.8-1.8,0.9H294
				C293.3,68.9,292.7,68.6,292.3,68z"/>
			<path class="st3" d="M310.8,40.4c-9.6,0-16.7,6.2-16.7,14.2c0,8.1,7.1,14.3,16.7,14.3c9.7,0,16.7-6.2,16.7-14.3
				C327.6,46.7,320.5,40.4,310.8,40.4z M310.8,68.6c-5.5,0-10.6-4.3-10.6-13.9c0-9.6,5-13.9,10.6-13.9c5.5,0,10.6,4.3,10.6,13.9
				C321.4,64.3,316.3,68.6,310.8,68.6z"/>
			<path class="st3" d="M246.8,56.9c-0.5-1-2.5-0.8-2.8-0.7c-0.3,0.8-0.7,1.6-1.1,2.4c-1.7,3.4-4.5,7-8.7,8.7
				c-4.5,1.8-12,1.5-12,1.6c0,0.2,9.6,1.5,15.7-1.4c2.8-1.3,4.5-3.2,6.4-5.7c0.5-0.7,1-1.3,1.5-2.1
				C246.5,58.8,247.2,57.7,246.8,56.9z"/>
		</g>
		<line class="st4" x1="131.6" y1="76.4" x2="327.6" y2="76.4"/>
		<g>
			<path d="M133.4,90.9c-0.4-0.2-0.7-0.4-0.9-0.7c-0.2-0.3-0.3-0.6-0.4-1h1.5c0,0.3,0.1,0.5,0.3,0.6c0.2,0.2,0.4,0.2,0.8,0.2
				c0.3,0,0.6-0.1,0.8-0.2c0.2-0.1,0.3-0.3,0.3-0.6c0-0.2-0.1-0.4-0.2-0.5c-0.1-0.1-0.3-0.2-0.5-0.3c-0.2-0.1-0.5-0.2-0.8-0.2
				c-0.5-0.1-0.8-0.2-1.1-0.4c-0.3-0.1-0.5-0.3-0.7-0.5c-0.2-0.2-0.3-0.6-0.3-1c0-0.4,0.1-0.7,0.3-1c0.2-0.3,0.5-0.5,0.9-0.7
				c0.4-0.2,0.8-0.2,1.3-0.2c0.7,0,1.3,0.2,1.8,0.5c0.5,0.3,0.7,0.8,0.7,1.4h-1.5c0-0.2-0.1-0.4-0.3-0.6c-0.2-0.1-0.4-0.2-0.8-0.2
				c-0.3,0-0.5,0.1-0.7,0.2c-0.2,0.1-0.2,0.3-0.2,0.6c0,0.2,0.1,0.3,0.2,0.4c0.1,0.1,0.3,0.2,0.5,0.3c0.2,0.1,0.4,0.2,0.8,0.2
				c0.5,0.1,0.8,0.2,1.1,0.4c0.3,0.1,0.5,0.3,0.7,0.6c0.2,0.2,0.3,0.6,0.3,1c0,0.3-0.1,0.7-0.3,1c-0.2,0.3-0.5,0.5-0.9,0.7
				c-0.4,0.2-0.8,0.3-1.3,0.3C134.2,91.1,133.8,91,133.4,90.9z"/>
			<path d="M142,84.5v4c0,0.4,0.1,0.8,0.4,1s0.6,0.3,1,0.3c0.5,0,0.8-0.1,1.1-0.3c0.2-0.2,0.4-0.6,0.4-1v-4h1.4v4
				c0,0.6-0.1,1-0.4,1.4c-0.3,0.4-0.6,0.7-1,0.9c-0.4,0.2-0.9,0.3-1.4,0.3c-0.5,0-1-0.1-1.4-0.3c-0.4-0.2-0.8-0.5-1-0.9
				c-0.2-0.4-0.4-0.9-0.4-1.4v-4H142z"/>
			<path d="M151.2,90h2.3v1h-3.7v-6.5h1.4V90z"/>
			<path d="M161.4,84.5v1.1h-1.9V91h-1.4v-5.5h-1.9v-1.1H161.4z"/>
			<path d="M168.9,89.8h-2.8l-0.5,1.2h-1.5l2.5-6.5h1.6l2.5,6.5h-1.5L168.9,89.8z M168.5,88.7l-1-2.7l-1,2.7H168.5z"/>
			<path d="M180,91h-1.4l-3.2-4.5V91H174v-6.5h1.4l3.2,4.5v-4.5h1.4V91z"/>
			<path d="M188.5,87.5c-0.2,0.3-0.5,0.6-0.8,0.7s-0.9,0.3-1.4,0.3H185V91h-1.4v-6.5h2.6c0.5,0,1,0.1,1.4,0.3
				c0.4,0.2,0.7,0.4,0.9,0.7c0.2,0.3,0.3,0.6,0.3,1C188.7,86.9,188.6,87.2,188.5,87.5z M187,87.2c0.2-0.2,0.3-0.4,0.3-0.7
				c0-0.6-0.4-1-1.1-1H185v1.9h1.1C186.5,87.5,186.8,87.4,187,87.2z"/>
			<path d="M193.3,84.5v4c0,0.4,0.1,0.8,0.4,1c0.2,0.2,0.6,0.3,1,0.3c0.5,0,0.8-0.1,1.1-0.3c0.2-0.2,0.4-0.6,0.4-1v-4h1.4v4
				c0,0.6-0.1,1-0.4,1.4s-0.6,0.7-1,0.9c-0.4,0.2-0.9,0.3-1.4,0.3c-0.5,0-1-0.1-1.4-0.3c-0.4-0.2-0.8-0.5-1-0.9
				c-0.2-0.4-0.4-0.9-0.4-1.4v-4H193.3z"/>
			<path d="M204.8,91l-1.5-2.5h-0.7V91h-1.4v-6.5h2.6c0.5,0,1,0.1,1.4,0.3c0.4,0.2,0.7,0.4,0.9,0.7c0.2,0.3,0.3,0.6,0.3,1
				c0,0.4-0.1,0.8-0.4,1.2c-0.3,0.3-0.7,0.6-1.2,0.7l1.7,2.6H204.8z M202.5,87.5h1.2c0.4,0,0.7-0.1,0.9-0.3c0.2-0.2,0.3-0.4,0.3-0.7
				c0-0.3-0.1-0.5-0.3-0.7c-0.2-0.2-0.5-0.2-0.9-0.2h-1.2V87.5z"/>
			<path d="M218,91l-1.5-2.5h-0.7V91h-1.4v-6.5h2.6c0.5,0,1,0.1,1.4,0.3c0.4,0.2,0.7,0.4,0.9,0.7c0.2,0.3,0.3,0.6,0.3,1
				c0,0.4-0.1,0.8-0.4,1.2c-0.3,0.3-0.7,0.6-1.2,0.7l1.7,2.6H218z M215.8,87.5h1.2c0.4,0,0.7-0.1,0.9-0.3c0.2-0.2,0.3-0.4,0.3-0.7
				c0-0.3-0.1-0.5-0.3-0.7c-0.2-0.2-0.5-0.2-0.9-0.2h-1.2V87.5z"/>
			<path d="M224.5,90.7c-0.5-0.3-1-0.7-1.3-1.2c-0.3-0.5-0.5-1.1-0.5-1.7c0-0.6,0.2-1.2,0.5-1.7c0.3-0.5,0.8-0.9,1.3-1.2
				c0.5-0.3,1.2-0.4,1.8-0.4c0.7,0,1.3,0.1,1.8,0.4c0.5,0.3,1,0.7,1.3,1.2c0.3,0.5,0.5,1.1,0.5,1.7c0,0.6-0.2,1.2-0.5,1.7
				c-0.3,0.5-0.8,0.9-1.3,1.2c-0.5,0.3-1.2,0.4-1.8,0.4C225.6,91.1,225,90.9,224.5,90.7z M227.4,89.7c0.3-0.2,0.6-0.4,0.8-0.8
				c0.2-0.3,0.3-0.7,0.3-1.1c0-0.4-0.1-0.8-0.3-1.1c-0.2-0.3-0.4-0.6-0.8-0.8c-0.3-0.2-0.7-0.3-1.1-0.3c-0.4,0-0.8,0.1-1.1,0.3
				c-0.3,0.2-0.6,0.4-0.8,0.8c-0.2,0.3-0.3,0.7-0.3,1.1c0,0.4,0.1,0.8,0.3,1.1c0.2,0.3,0.4,0.6,0.8,0.8s0.7,0.3,1.1,0.3
				C226.7,89.9,227.1,89.8,227.4,89.7z"/>
			<path d="M237.4,89.8h-2.8l-0.5,1.2h-1.5l2.5-6.5h1.6l2.5,6.5h-1.5L237.4,89.8z M237,88.7l-1-2.7l-1,2.7H237z"/>
			<path d="M246.9,84.9c0.6,0.3,1,0.6,1.3,1.1c0.3,0.5,0.5,1.1,0.5,1.7c0,0.7-0.2,1.2-0.5,1.7c-0.3,0.5-0.7,0.9-1.3,1.1
				c-0.6,0.3-1.2,0.4-1.9,0.4h-2.4v-6.5h2.4C245.7,84.5,246.3,84.6,246.9,84.9z M246.6,89.4c0.4-0.4,0.6-0.9,0.6-1.6
				c0-0.7-0.2-1.2-0.6-1.6c-0.4-0.4-1-0.6-1.7-0.6h-1v4.3h1C245.6,89.9,246.2,89.7,246.6,89.4z"/>
			<path d="M253.5,89.7l-1.2,2.6h-0.9l0.7-2.6H253.5z"/>
			<path d="M262.7,90h2.3v1h-3.7v-6.5h1.4V90z"/>
			<path d="M269.5,84.5v4c0,0.4,0.1,0.8,0.4,1c0.2,0.2,0.6,0.3,1,0.3c0.5,0,0.8-0.1,1.1-0.3c0.2-0.2,0.4-0.6,0.4-1v-4h1.4v4
				c0,0.6-0.1,1-0.4,1.4c-0.3,0.4-0.6,0.7-1,0.9c-0.4,0.2-0.9,0.3-1.4,0.3c-0.5,0-1-0.1-1.4-0.3c-0.4-0.2-0.8-0.5-1-0.9
				c-0.2-0.4-0.4-0.9-0.4-1.4v-4H269.5z"/>
			<path d="M277.4,86c0.3-0.5,0.7-0.9,1.3-1.2c0.5-0.3,1.1-0.4,1.8-0.4c0.8,0,1.5,0.2,2.1,0.6c0.6,0.4,1,0.9,1.2,1.5h-1.6
				c-0.2-0.3-0.4-0.5-0.7-0.7c-0.3-0.2-0.6-0.2-1-0.2c-0.4,0-0.8,0.1-1.1,0.3s-0.6,0.4-0.7,0.8c-0.2,0.3-0.3,0.7-0.3,1.1
				c0,0.4,0.1,0.8,0.3,1.1c0.2,0.3,0.4,0.6,0.7,0.8c0.3,0.2,0.7,0.3,1.1,0.3c0.4,0,0.7-0.1,1-0.2c0.3-0.2,0.5-0.4,0.7-0.7h1.6
				c-0.2,0.7-0.6,1.2-1.2,1.6c-0.6,0.4-1.3,0.6-2.1,0.6c-0.7,0-1.3-0.1-1.8-0.4s-1-0.7-1.3-1.2c-0.3-0.5-0.5-1.1-0.5-1.7
				C277,87.1,277.1,86.5,277.4,86z"/>
			<path d="M291.2,91l-2.6-2.9V91h-1.4v-6.5h1.4v2.9l2.6-2.9h1.7l-2.9,3.2l3,3.3H291.2z"/>
			<path d="M302.1,91h-1.4l-3.2-4.5V91h-1.4v-6.5h1.4l3.2,4.5v-4.5h1.4V91z"/>
			<path d="M307.1,90.7c-0.5-0.3-1-0.7-1.3-1.2c-0.3-0.5-0.5-1.1-0.5-1.7c0-0.6,0.2-1.2,0.5-1.7c0.3-0.5,0.8-0.9,1.3-1.2
				c0.5-0.3,1.2-0.4,1.8-0.4c0.7,0,1.3,0.1,1.8,0.4c0.5,0.3,1,0.7,1.3,1.2c0.3,0.5,0.5,1.1,0.5,1.7c0,0.6-0.2,1.2-0.5,1.7
				c-0.3,0.5-0.8,0.9-1.3,1.2c-0.5,0.3-1.2,0.4-1.8,0.4C308.3,91.1,307.7,90.9,307.1,90.7z M310,89.7c0.3-0.2,0.6-0.4,0.8-0.8
				c0.2-0.3,0.3-0.7,0.3-1.1c0-0.4-0.1-0.8-0.3-1.1c-0.2-0.3-0.4-0.6-0.8-0.8c-0.3-0.2-0.7-0.3-1.1-0.3c-0.4,0-0.8,0.1-1.1,0.3
				c-0.3,0.2-0.6,0.4-0.8,0.8c-0.2,0.3-0.3,0.7-0.3,1.1c0,0.4,0.1,0.8,0.3,1.1c0.2,0.3,0.4,0.6,0.8,0.8c0.3,0.2,0.7,0.3,1.1,0.3
				C309.3,89.9,309.7,89.8,310,89.7z"/>
			<path d="M325.1,84.5l-2,6.5h-1.7l-1.3-4.6l-1.4,4.6l-1.6,0l-1.9-6.5h1.5l1.2,5.1l1.4-5.1h1.6l1.3,5l1.2-5H325.1z"/>
		</g>
	</g>
	<line class="st4" x1="112.4" y1="11.7" x2="112.4" y2="92.3"/>
</g>
</svg>
